# xmcd
#
# Track frame offsets: 
#        150
#        25757
#        43162
#        64042
#        81095
#        100630
#        117557
#        135870
#        151155
#        169172
#        185045
#
# Disc length: 2681 seconds
#
# Revision: 1
# Processed by: cddbd v1.5.2PL0 Copyright (c) Steve Scherf et al.
# Submitted via: ExactAudioCopy v1.3
#
DISCID=870a770b
DTITLE=Savage Garden - Savage Garden
DYEAR=1998
DGENRE=Blues Rock
TTITLE0=To The Moon and Back
TTITLE1=I Want You
TTITLE2=Truly Madly Deeply
TTITLE3=Tears Of Pearls
TTITLE4=Universe
TTITLE5=Carry On Danncing
TTITLE6=Violet
TTITLE7=Break Me Shake Me
TTITLE8=A Thousand Words
TTITLE9=Promises
TTITLE10=Santa Monica
EXTD=
EXTT0=
EXTT1=
EXTT2=
EXTT3=
EXTT4=
EXTT5=
EXTT6=
EXTT7=
EXTT8=
EXTT9=
EXTT10=
PLAYORDER=
